# xmcd CD database file
#
# Track frame offsets:
#	200
#	25400
#	38525
#	77225
#	95675
#	123725
#	138950
#	173375
#
# Disc length: 2635 seconds
#
# Revision: 1
# Processed by: cddbd v1.4PL0 Copyright (c) Steve Scherf et al.
# Submitted via: CDex 1.51
#
DISCID=5f0a4908
DTITLE=Geri Allen - Home Grown
DYEAR=1985
DGENRE=Jazz
TTITLE0=Mamma's Babies
TTITLE1=Bemsha Swing
TTITLE2=No More Mr. Nice Guy
TTITLE3=Black Man...M.O.P.E.
TTITLE4=Round Mindnight
TTITLE5=Blue
TTITLE6=Alone Together
TTITLE7=Home Grown
EXTD=YEAR: 1985
EXTT0=
EXTT1=
EXTT2=
EXTT3=
EXTT4=
EXTT5=
EXTT6=
EXTT7=
PLAYORDER=
